<?xml version="1.0" encoding="UTF-8" standalone="no"?>
<!-- Created with Inkscape (http://www.inkscape.org/) -->

<svg
   xmlns:dc="http://purl.org/dc/elements/1.1/"
   xmlns:cc="http://creativecommons.org/ns#"
   xmlns:rdf="http://www.w3.org/1999/02/22-rdf-syntax-ns#"
   xmlns:svg="http://www.w3.org/2000/svg"
   xmlns="http://www.w3.org/2000/svg"
   xmlns:sodipodi="http://sodipodi.sourceforge.net/DTD/sodipodi-0.dtd"
   xmlns:inkscape="http://www.inkscape.org/namespaces/inkscape"
   width="66.508263mm"
   height="33.411175mm"
   viewBox="0 0 66.508263 33.411175"
   version="1.1"
   id="svg15269"
   inkscape:version="0.92.4 (5da689c313, 2019-01-14)"
   sodipodi:docname="pixabay_banana.svg">
  <defs
     id="defs15263">
    <linearGradient
       y2="0.5"
       y1="0.5"
       id="d">
      <stop
         id="stop15886"
         offset="0"
         stop-opacity="0"
         stop-color="#fff" />
      <stop
         id="stop15888"
         offset="1"
         stop-opacity=".417"
         stop-color="#5f0e00" />
    </linearGradient>
    <linearGradient
       y2="-0.22034"
       y1="0.43220001"
       x2="1.25"
       x1="0.15074"
       id="c">
      <stop
         id="stop15891"
         offset="0"
         stop-opacity=".525"
         stop-color="#fff" />
      <stop
         id="stop15893"
         offset="1"
         stop-opacity="0"
         stop-color="#fff" />
    </linearGradient>
  </defs>
  <sodipodi:namedview
     id="base"
     pagecolor="#ffffff"
     bordercolor="#666666"
     borderopacity="1.0"
     inkscape:pageopacity="0.0"
     inkscape:pageshadow="2"
     inkscape:zoom="1.979899"
     inkscape:cx="116.65031"
     inkscape:cy="13.802887"
     inkscape:document-units="mm"
     inkscape:current-layer="layer1"
     showgrid="false"
     inkscape:pagecheckerboard="true"
     fit-margin-top="0"
     fit-margin-left="0"
     fit-margin-right="0"
     fit-margin-bottom="0"
     inkscape:window-width="1440"
     inkscape:window-height="810"
     inkscape:window-x="0"
     inkscape:window-y="23"
     inkscape:window-maximized="0" />
  <metadata
     id="metadata15266">
    <rdf:RDF>
      <cc:Work
         rdf:about="">
        <dc:format>image/svg+xml</dc:format>
        <dc:type
           rdf:resource="http://purl.org/dc/dcmitype/StillImage" />
        <dc:title></dc:title>
      </cc:Work>
    </rdf:RDF>
  </metadata>
  <g
     inkscape:label="Layer 1"
     inkscape:groupmode="layer"
     id="layer1"
     transform="translate(59.789745,-99.178313)">
    <g
       id="g16063"
       transform="matrix(0.26458333,0,0,0.26458333,-66.408861,83.439089)">
      <path
         id="path16010"
         d="m 46.41,68.192 c 0,0 5.768,10.994 13.25,19.67 7.482,8.676 81.02,42.017 124.35,42.239 43.334,0.226 84.48,-14.171 85.789,-12.305 1.309,1.866 4.232,7.616 3.953,9.204 -0.279,1.588 3.965,33.427 -42.074,49.586 -46.039,16.159 -160.6,10.03 -183.81,-50.364 -6.746,-17.549 0.846,-25.385 0.846,-25.385 0,0 -9.339,-17.12 -16.929,-20.149 -6.579,-2.626 -5.368,-4.868 -4.735,-7.541 0.633,-2.673 0.684,-5.772 4.845,-8.971 4.161,-3.199 12.808,-3.977 12.529,-2.389 -0.279,1.588 1.987,6.405 1.987,6.405 z"
         inkscape:connector-curvature="0"
         style="fill:#ffe200;fill-opacity:1;stroke:#000000;stroke-width:3" />
      <path
         id="path16012"
         d="m 46.666,107.84 c 0,0 10.367,36.803 85.351,53.738 64.55,14.582 119.28,4.854 137.04,-14.293 0,0 -23.295,54.513 -152.37,28.957 -7.568,-1.498 -75.058,-22.804 -70.017,-68.402 z"
         inkscape:connector-curvature="0"
         style="opacity:0.76999996;fill:#dbb515;fill-opacity:1" />
      <path
         id="path16014"
         d="m 41.473,62.745 c 4.187,2.137 13.926,24.208 23.755,27.893 9.829,3.685 -6.305,6.098 -8.095,7.911 -1.79,1.813 -6.305,6.096 -9.106,8.062 -2.801,1.966 2.678,-9.678 -3.193,-14.471 C 38.963,87.347 34.305,80.311 31.429,81.773 28.553,83.235 37.567,60.751 41.473,62.745 Z"
         inkscape:connector-curvature="0"
         style="opacity:0.5;fill:#9cc902" />
      <path
         id="path16016"
         d="m 44.221,63.881 c 0,0 -3.885,1.611 -4.517,4.284 -0.632,2.673 5.113,10.06 8.59,12.633 3.477,2.573 -8.166,-2.903 -10.763,-3.031 -2.597,-0.128 -7.991,1.709 -7.991,1.709 0,0 -1.361,1.234 -2.318,-1.715 -0.957,-2.949 0.232,-8.797 1.667,-9.527 1.435,-0.73 5.802,-6.021 5.802,-6.021 0,0 7.186,-3.652 9.53,1.668 z"
         inkscape:connector-curvature="0"
         style="opacity:0.82999998;fill:#412800" />
      <path
         id="path16018"
         d="m 273.16,131.22 -6.641,-12.773 c 0,0 -0.48,-1.137 1.604,-1.09 2.084,0.047 8.211,8.187 8.211,8.187 0,0 0.723,5.369 -3.174,5.676 z"
         inkscape:connector-curvature="0"
         style="fill:#412800" />
      <path
         id="path16020"
         d="m 269.01,129.77 c 0,0 -43.504,40.005 -123.38,19.468 -79.876,-20.537 -84.85,-43.504 -84.85,-43.504 0,0 6.08,-7.609 8.248,-6.902 2.168,0.707 66.52,39.03 107.89,39.03 44.846,-0.001 81.455,-13.72 84.908,-14.752 3.455,-1.031 7.889,4.493 7.18,6.66 z"
         inkscape:connector-curvature="0"
         style="opacity:0.3;fill:#fff186;fill-opacity:1" />
      <path
         id="path16022"
         d="m 263.965,140.833 c -0.227,0.104 -1.402,-0.351 -1.402,-0.351 0,0 0.678,-2.243 1.186,-1.868 0.503,0.376 0.954,1.883 0.216,2.219 z"
         inkscape:connector-curvature="0"
         style="fill:#412800" />
      <path
         id="path16024"
         d="m 254.678,146.026 c -0.232,-0.09 -0.793,-1.191 -0.793,-1.191 0,0 1.938,-0.986 2.066,-0.396 0.128,0.59 -0.519,1.876 -1.273,1.587 z"
         inkscape:connector-curvature="0"
         style="fill:#412800" />
      <path
         id="path16026"
         d="m 121.997,120.75 c 0.118,-0.166 1.109,-0.38 1.109,-0.38 0,0 0.389,1.75 -0.106,1.726 -0.495,-0.024 -1.388,-0.808 -1.003,-1.346 z"
         inkscape:connector-curvature="0"
         style="fill:#412800" />
      <path
         id="path16028"
         d="m 262.861,148.188 c -0.541,0.317 -1.754,-1.191 -1.168,-1.858 0.586,-0.667 1.15,-1.48 1.605,-1.185 0.455,0.295 0.886,2.262 -0.437,3.043 z"
         inkscape:connector-curvature="0"
         style="fill:#412800" />
      <path
         id="path16030"
         d="m 59.976,131.409 c -0.698,0.269 -2.072,-0.688 -1.294,-1.203 0.778,-0.515 1.544,-1.13 2.084,-0.961 0.54,0.169 0.911,1.51 -0.79,2.164 z"
         inkscape:connector-curvature="0"
         style="fill:#412800" />
      <path
         id="path16032"
         d="m 118.829,121.586 c -0.411,0.223 -1.302,-0.807 -0.86,-1.271 0.446,-0.467 0.876,-1.029 1.214,-0.83 0.338,0.199 0.643,1.552 -0.354,2.101 z"
         inkscape:connector-curvature="0"
         style="fill:#412800" />
      <path
         id="path16034"
         d="m 216.818,134.878 c -0.025,0.376 -1.104,0.545 -1.227,0.042 -0.123,-0.506 -0.316,-1.041 -0.037,-1.187 0.279,-0.146 1.323,0.228 1.264,1.145 z"
         inkscape:connector-curvature="0"
         style="fill:#412800" />
      <path
         id="path16036"
         d="m 125.39,162.06 c 0,0 -3.123,-3.656 -4.99,-2.348 -1.867,1.308 -4.688,-0.33 -4.688,-0.33 0,0 1.692,-5.923 3.002,-4.058 1.31,1.865 9.049,5.349 9.049,5.349 z"
         inkscape:connector-curvature="0"
         style="opacity:0.76000001;fill:#412800" />
      <path
         id="path16038"
         d="m 113.24,156.66 c 0,0 -2.544,-3.228 -4.989,-2.346 -2.446,0.878 -1.994,3.905 -1.994,3.905 z"
         inkscape:connector-curvature="0"
         style="opacity:0.76000001;fill:#412800" />
    </g>
  </g>
</svg>
