<svg xmlns="http://www.w3.org/2000/svg" width="251.37" height="126.278" viewBox="0 0 66.508 33.411"><path fill="#ffe200" stroke="#000" stroke-width=".7937399999999999" d="M5.66 2.303s1.526 2.91 3.506 5.205c1.98 2.295 21.436 11.117 32.9 11.175 11.466.06 22.353-3.75 22.7-3.255.346.493 1.119 2.015 1.045 2.435-.074.42 1.05 8.844-11.132 13.12-12.181 4.275-42.492 2.653-48.633-13.326-1.785-4.643.224-6.716.224-6.716S3.799 6.41 1.79 5.609C.05 4.915.37 4.321.539 3.614c.167-.707.18-1.527 1.282-2.373C2.92.394 5.209.188 5.135.609c-.074.42.525 1.694.525 1.694z"/><path fill="#dbb515" d="M5.728 12.793S8.47 22.531 28.31 27.012c17.08 3.858 31.56 1.284 36.259-3.782 0 0-6.164 14.423-40.315 7.661-2.002-.396-19.859-6.033-18.525-18.098z" opacity=".77"/><path fill="#9cc902" d="M4.354.862c1.108.565 3.685 6.405 6.285 7.38 2.6.975-1.668 1.614-2.142 2.093-.473.48-1.668 1.613-2.409 2.133-.741.52.709-2.56-.845-3.829C3.69 7.371 2.457 5.51 1.696 5.897.936 6.283 3.32.334 4.354.862Z" opacity=".5"/><path fill="#412800" d="M5.081 1.163s-1.028.426-1.195 1.133c-.167.707 1.353 2.662 2.273 3.343.92.68-2.16-.769-2.848-.802-.687-.034-2.114.452-2.114.452s-.36.326-.614-.454c-.253-.78.062-2.327.441-2.52C1.404 2.12 2.56.72 2.56.72s1.9-.966 2.521.442z" opacity=".83"/><path fill="#412800" d="m65.654 18.98-1.757-3.38s-.127-.301.425-.289c.551.013 2.172 2.167 2.172 2.167s.192 1.42-.84 1.501z"/><path fill="#fff186" d="M64.556 18.596s-11.51 10.584-32.644 5.15c-21.134-5.433-22.45-11.51-22.45-11.51s1.609-2.013 2.183-1.826c.573.187 17.6 10.327 28.545 10.327 11.866 0 21.552-3.63 22.466-3.903.914-.273 2.087 1.188 1.9 1.762z" opacity=".3"/><path fill="#412800" d="M63.222 21.523c-.06.027-.371-.093-.371-.093s.18-.593.313-.494c.134.1.253.498.058.587zM60.764 22.897c-.06-.024-.21-.315-.21-.315s.513-.261.547-.105c.034.156-.137.496-.337.42zM25.66 16.21c.03-.045.293-.101.293-.101s.103.463-.028.456c-.131-.006-.368-.213-.266-.356zM62.93 23.469c-.144.084-.465-.315-.31-.492.156-.176.305-.391.425-.313.12.078.235.598-.115.805zM9.25 19.03c-.185.07-.549-.183-.343-.319.206-.136.409-.299.552-.254.142.045.24.4-.21.572zM24.821 16.43c-.109.06-.344-.213-.227-.336.118-.123.231-.272.32-.22.09.053.17.411-.093.556zM50.747 19.947c-.006.1-.292.144-.324.011-.033-.134-.084-.275-.01-.314.074-.038.35.06.334.303z"/><path fill="#412800" d="M26.557 27.14s-.826-.968-1.32-.622c-.494.346-1.24-.087-1.24-.087s.447-1.568.794-1.074c.346.493 2.394 1.415 2.394 1.415zM23.342 25.71s-.673-.854-1.32-.62c-.647.232-.527 1.033-.527 1.033z" opacity=".76"/></svg>